<svg width="265" height="51" viewBox="0 0 265 51" fill="none" xmlns="http://www.w3.org/2000/svg">
<g clip-path="url(#clip0_42_1834)">
<path d="M14.476 17.0391H5.78932C4.25825 17.0531 2.79386 17.6676 1.71118 18.7502C0.628502 19.8329 0.0140474 21.2973 0 22.8284L0 37.3044H2.89735V31.5151H17.368V37.3044H20.2653V22.8284C20.231 21.3037 19.6101 19.851 18.5317 18.7727C17.4534 17.6943 16.0006 17.0733 14.476 17.0391ZM17.3733 28.6177H2.89735V22.8284C2.89735 22.0604 3.20169 21.3237 3.74373 20.7796C4.28577 20.2356 5.02133 19.9285 5.78932 19.9256H14.476C15.244 19.9271 15.9801 20.2328 16.5232 20.7758C17.0662 21.3189 17.3719 22.055 17.3733 22.823V28.6177Z" fill="url(#paint0_linear_42_1834)"/>
<path d="M43.4269 22.8284C43.4033 21.3003 42.7858 19.8415 41.7052 18.7608C40.6245 17.6802 39.1657 17.0627 37.6376 17.0391H23.1562V37.3044H37.6376C39.167 37.2848 40.6282 36.6686 41.7097 35.5871C42.7912 34.5056 43.4074 33.0444 43.4269 31.5151C43.4404 30.6918 43.2716 29.8757 42.9327 29.1253C42.5938 28.3749 42.0932 27.7087 41.4667 27.1744C42.0939 26.6396 42.595 25.9725 42.9339 25.2211C43.2728 24.4697 43.4412 23.6526 43.4269 22.8284ZM37.6376 34.407H26.0536V28.6177H37.6322C38.3783 28.6499 39.0832 28.9689 39.5998 29.5083C40.1163 30.0476 40.4047 30.7656 40.4047 31.5124C40.4047 32.2592 40.1163 32.9771 39.5998 33.5165C39.0832 34.0558 38.3783 34.3748 37.6322 34.407H37.6376ZM37.6376 25.7203H26.0536V19.9256H37.6322C38.0229 19.9088 38.4129 19.9712 38.7788 20.1091C39.1447 20.2469 39.4788 20.4574 39.7612 20.7279C40.0436 20.9983 40.2683 21.3231 40.4218 21.6827C40.5753 22.0423 40.6545 22.4293 40.6545 22.8203C40.6545 23.2113 40.5753 23.5983 40.4218 23.9579C40.2683 24.3175 40.0436 24.6423 39.7612 24.9127C39.4788 25.1832 39.1447 25.3937 38.7788 25.5316C38.4129 25.6694 38.0229 25.7318 37.6322 25.715L37.6376 25.7203Z" fill="url(#paint1_linear_42_1834)"/>
<path d="M44.5859 19.9364H53.2726V37.3044H56.1646V19.9364H64.8512V17.0391H44.5859V19.9364Z" fill="url(#paint2_linear_42_1834)"/>
<path d="M80.4863 17.0391H71.805C70.2709 17.0433 68.8008 17.6546 67.716 18.7394C66.6312 19.8242 66.0199 21.2943 66.0157 22.8284V31.5151C66.0128 32.2761 66.1606 33.0302 66.4506 33.7339C66.7405 34.4376 67.1668 35.0769 67.705 35.6151C68.2431 36.1532 68.8825 36.5796 69.5861 36.8695C70.2898 37.1594 71.0439 37.3072 71.805 37.3044H80.4917C82.0248 37.2987 83.4935 36.6867 84.5771 35.6021C85.6608 34.5175 86.2713 33.0482 86.2756 31.5151V22.8284C86.2413 21.3037 85.6204 19.851 84.542 18.7727C83.4636 17.6943 82.0109 17.0733 80.4863 17.0391ZM83.3836 31.5151C83.3822 32.283 83.0765 33.0192 82.5334 33.5622C81.9904 34.1053 81.2543 34.411 80.4863 34.4124H71.805C71.037 34.411 70.3009 34.1053 69.7578 33.5622C69.2148 33.0192 68.9091 32.283 68.9076 31.5151V22.8284C68.9076 22.0595 69.2127 21.322 69.7559 20.7777C70.2991 20.2335 71.0361 19.9271 71.805 19.9256H80.4917C81.2596 19.9271 81.9958 20.2328 82.5388 20.7758C83.0819 21.3189 83.3876 22.055 83.389 22.823L83.3836 31.5151Z" fill="url(#paint3_linear_42_1834)"/>
<path d="M163.958 17.2598H155.271C153.74 17.2738 152.276 17.8883 151.193 18.9709C150.11 20.0536 149.496 21.518 149.482 23.0491H152.379C152.381 22.2811 152.686 21.545 153.229 21.0019C153.773 20.4589 154.509 20.1532 155.277 20.1517H163.963C164.731 20.1532 165.467 20.4589 166.01 21.0019C166.554 21.545 166.859 22.2811 166.861 23.0491V25.9464H158.163V28.8438H166.85V31.7411C166.848 32.5091 166.543 33.2453 166 33.7883C165.457 34.3314 164.721 34.6371 163.953 34.6385H155.271C154.503 34.6371 153.767 34.3314 153.224 33.7883C152.681 33.2453 152.375 32.5091 152.374 31.7411H149.477C149.486 33.2735 150.1 34.7403 151.183 35.8239C152.267 36.9075 153.734 37.5206 155.266 37.5305H163.953C165.485 37.5178 166.952 36.9032 168.036 35.8192C169.12 34.7352 169.735 33.2687 169.747 31.7358V23.0491C169.724 21.521 169.106 20.0622 168.025 18.9815C166.945 17.9009 165.486 17.2834 163.958 17.2598Z" fill="url(#paint4_linear_42_1834)"/>
<path d="M183.934 29.797L175.247 17.2598H172.355V37.5251H175.247V22.4405L183.934 34.9778L192.621 22.4405V37.5251H195.513V17.2598H192.621L183.934 29.797Z" fill="url(#paint5_linear_42_1834)"/>
<path d="M212.886 17.2598H204.199C202.668 17.2738 201.204 17.8883 200.121 18.9709C199.039 20.0536 198.424 21.518 198.41 23.0491V37.5251H201.307V31.7358H215.783V37.5251H218.681V23.0491C218.647 21.5235 218.025 20.07 216.945 18.9915C215.866 17.913 214.412 17.2927 212.886 17.2598ZM215.783 28.8384H201.307V23.0491C201.309 22.2811 201.615 21.545 202.158 21.0019C202.701 20.4589 203.437 20.1532 204.205 20.1517H212.886C213.654 20.1532 214.39 20.4589 214.933 21.0019C215.476 21.545 215.782 22.2811 215.783 23.0491V28.8384Z" fill="url(#paint6_linear_42_1834)"/>
<path d="M221.57 23.0491V37.5251H224.468V23.0491C224.469 22.2811 224.775 21.545 225.318 21.0019C225.861 20.4589 226.597 20.1532 227.365 20.1517H238.944V37.5251H241.841V17.2598H227.36C225.83 17.2793 224.369 17.8955 223.288 18.977C222.206 20.0585 221.59 21.5197 221.57 23.0491Z" fill="url(#paint7_linear_42_1834)"/>
<path d="M262.102 17.2598L247.626 33.3298V17.2598H244.734V37.5251H247.626L262.102 21.1696V37.5251H265V17.2598H262.102Z" fill="url(#paint8_linear_42_1834)"/>
<path d="M142.498 20.3779C142.17 19.543 141.772 18.7377 141.308 17.9706C140.788 17.0732 140.176 16.2321 139.482 15.461C137.065 12.9533 133.882 11.3219 130.434 10.8242C128.253 10.4647 126.018 10.6028 123.897 11.2281C120.699 12.1785 117.9 14.1517 115.932 16.8451C115.813 16.9959 115.711 17.1574 115.598 17.3244C116.98 16.9794 118.428 17.0017 119.798 17.389C121.005 17.039 122.195 16.6404 123.417 16.3765C124.95 16.0408 126.527 15.9554 128.086 16.1234C129.929 16.2937 131.717 16.8438 133.337 17.7391C135.144 18.7858 136.711 20.2004 137.936 21.8912C139.022 23.325 139.904 24.9016 140.559 26.5765C141.098 27.9175 141.539 29.2692 142.024 30.621C142.08 30.5178 142.13 30.4118 142.175 30.3032C142.765 28.7888 143.128 27.1954 143.252 25.5748C143.399 23.8077 143.141 22.0303 142.498 20.3779Z" fill="#2E3192"/>
<path d="M140.8 31.0196C140.503 28.7542 139.725 26.5785 138.517 24.639C137.31 22.6994 135.701 21.0409 133.799 19.7748C130.703 17.7191 126.942 16.9146 123.276 17.5237C122.646 17.6314 122.021 17.7768 121.348 17.9276C122.596 18.5525 123.669 19.4778 124.471 20.6203C125.376 21.0081 126.297 21.3635 127.164 21.789C129.852 23.0312 132.114 25.0371 133.669 27.5567C134.677 29.2083 135.284 31.073 135.441 33.0014C135.524 34.4233 135.494 35.8496 135.35 37.2666C135.234 38.7031 134.921 40.1166 134.418 41.4673C133.971 42.6736 133.508 43.8745 133.05 45.0809C133.158 45.0493 133.262 45.0079 133.363 44.957C133.799 44.6985 134.235 44.4185 134.655 44.16C136.784 42.7925 138.5 40.8712 139.62 38.6022C140.753 36.2463 141.163 33.6081 140.8 31.0196Z" fill="#2184C7"/>
<path d="M134.343 35.0747C134.244 34.062 134.091 33.0553 133.885 32.0589C133.436 30.1633 132.59 28.3846 131.402 26.8404C129.792 24.7426 127.676 23.0878 125.252 22.0312C125.727 23.0992 125.973 24.2551 125.974 25.4241C125.974 25.5641 125.974 25.6933 125.974 25.8334C127.191 27.8893 128.069 30.1277 128.575 32.4628C128.982 34.442 128.948 36.4864 128.478 38.4514C127.87 40.7977 126.671 42.9488 124.993 44.6985C122.829 47.0232 120.207 48.875 117.292 50.1377C117.152 50.197 117.028 50.2939 116.797 50.4285C117.556 50.547 118.176 50.6763 118.806 50.7355C120.1 50.8699 121.407 50.8391 122.694 50.6439C124.446 50.376 126.126 49.7569 127.632 48.8237C129.553 47.6176 131.143 45.9518 132.258 43.9768C133.088 42.5505 133.686 41.0019 134.03 39.3884C134.372 37.9777 134.478 36.52 134.343 35.0747Z" fill="#43C8F5"/>
<path d="M127.354 33.5618C127.303 32.6983 127.17 31.8416 126.955 31.0037C126.621 29.8135 126.163 28.6557 125.727 27.4062C125.396 28.7646 124.729 30.0181 123.788 31.0522C123.771 31.1283 123.76 31.2058 123.756 31.2837C123.726 31.5891 123.672 31.8916 123.595 32.1885C123.134 34.5673 122.229 36.8382 120.929 38.8826C119.719 40.771 118.035 42.3086 116.044 43.3417C113.776 44.4924 111.264 45.0816 108.72 45.0596C107.792 45.0719 106.864 45.0306 105.941 44.9358C104.864 44.8173 103.787 44.6073 102.748 44.3972C102.209 44.2949 101.638 44.1441 101.078 44.0095C101.078 44.0633 101.078 44.0849 101.078 44.0956C101.294 44.3595 101.498 44.6342 101.724 44.8765C104.159 47.6608 107.153 49.4541 110.88 49.8796C112.903 50.0986 114.95 49.8499 116.863 49.1525C119.501 48.2138 121.847 46.5993 123.666 44.4701C125.486 42.341 126.714 39.7718 127.23 37.0192C127.417 35.8766 127.459 34.7148 127.354 33.5618Z" fill="#00A650"/>
<path d="M118.905 33.696C118.264 34.1376 117.671 34.6438 117.047 35.1069C115.068 36.6071 112.782 37.6516 110.353 38.1659C108.966 38.444 107.545 38.4985 106.141 38.3274C104.149 38.0782 102.235 37.4003 100.53 36.3402C98.1113 34.8584 95.9968 32.9303 94.2988 30.6586C93.9056 30.1201 93.5179 29.6138 93.1086 29.043C93.0655 29.1291 93.0224 29.1722 93.0278 29.2045C93.1032 30.3462 93.0978 31.4987 93.2755 32.6297C93.528 34.2317 94.0758 35.7729 94.8911 37.1749C96.0093 39.146 97.6248 40.7894 99.5765 41.941C101.351 42.9965 103.323 43.6748 105.371 43.9336C107 44.1497 108.651 44.1243 110.272 43.8582C111.695 43.6077 113.077 43.1657 114.381 42.5442C116.968 41.3414 119.134 39.388 120.596 36.938C121.235 35.7981 121.788 34.6118 122.249 33.389C122.396 32.9926 122.513 32.5858 122.599 32.1719C121.509 32.9719 120.242 33.495 118.905 33.696Z" fill="#0ECC64"/>
<path d="M113.147 32.5383C111.647 32.5144 110.15 32.3885 108.666 32.1613C106.625 31.83 104.68 31.0622 102.963 29.9102C101.362 28.8332 100.021 27.4129 99.0372 25.7527C98.0756 24.1382 97.3963 22.3716 97.0285 20.5288C96.8041 19.5655 96.6564 18.5858 96.5869 17.5992C96.5169 15.9027 96.5869 14.201 96.5869 12.4453C96.4468 12.5961 96.3014 12.7469 96.1722 12.9031C94.1629 15.1803 92.9114 18.0259 92.5909 21.0458C92.4515 22.5917 92.5938 24.1499 93.0109 25.645C93.5106 27.4887 94.3811 29.2113 95.569 30.7072C97.9298 33.8028 101.345 35.9242 105.166 36.6689C107.167 37.0725 109.23 37.056 111.224 36.6204C113.057 36.1899 114.798 35.4328 116.362 34.3855C116.615 34.2185 116.863 34.0247 117.138 33.8146C115.72 33.7361 114.347 33.2967 113.147 32.5383Z" fill="#FEF200"/>
<path d="M109.56 27.9064C107.775 26.4492 106.251 24.6992 105.053 22.731C104.197 21.3348 103.602 19.7947 103.297 18.1858C102.965 16.2852 103.041 14.3358 103.518 12.4665C104.088 10.1914 105.086 8.04576 106.458 6.14398C107.498 4.68453 108.709 3.34895 109.835 1.97567C109.733 1.96254 109.63 1.96254 109.528 1.97567C108.026 2.24273 106.562 2.69496 105.171 3.32202C102.902 4.36154 100.978 6.0307 99.6295 8.1312C98.4737 9.94133 97.7461 11.9914 97.5023 14.1252C97.2667 15.8381 97.3489 17.5797 97.7446 19.2628C98.086 20.5531 98.5309 21.8138 99.0748 23.0326C100.045 25.2295 101.58 27.1304 103.523 28.5419C105.93 30.3395 108.817 31.38 111.817 31.5308C110.764 30.5376 109.987 29.289 109.56 27.9064Z" fill="#FF8500"/>
<path d="M109.184 25.4187C109.185 24.2036 109.451 23.0034 109.965 21.902C109.868 21.1804 109.771 20.4587 109.685 19.7478C109.493 17.9232 109.608 16.0794 110.024 14.2924C110.375 12.6794 111.038 11.1502 111.973 9.79022C113.404 7.74596 115.334 6.10158 117.58 5.01336C118.866 4.34629 120.225 3.82948 121.629 3.47313C122.782 3.19309 123.951 2.99383 125.119 2.7838C125.695 2.68148 126.277 2.63839 126.95 2.55223C126.892 2.4883 126.829 2.42889 126.762 2.37451C125.003 1.28391 123.053 0.53821 121.015 0.177259C118.588 -0.224617 116.095 0.0878459 113.842 1.07662C111.123 2.23521 108.816 4.18717 107.223 6.67745C105.823 8.75847 104.947 11.1476 104.671 13.6408C104.415 15.6563 104.583 17.7029 105.162 19.6501C105.742 21.5973 106.721 23.4024 108.037 24.9502C108.414 25.4025 108.823 25.828 109.227 26.2534C109.2 25.9518 109.184 25.688 109.184 25.4187Z" fill="#FF081A"/>
<path d="M138.545 11.3085C137.623 9.35542 136.236 7.65824 134.506 6.36544C132.775 5.07265 130.755 4.22365 128.62 3.89275C126.919 3.60698 125.181 3.62704 123.488 3.95199C121.158 4.38612 118.953 5.32547 117.025 6.70393C114.844 8.23712 113.115 10.3276 112.017 12.7571C110.937 15.1865 110.513 17.857 110.789 20.5014C111.633 19.339 112.76 18.412 114.063 17.8087C115.754 15.0352 117.785 12.5848 120.709 10.9584C121.944 10.2609 123.288 9.77492 124.683 9.52051C126.539 9.19999 128.438 9.23838 130.279 9.6336C132.955 10.2096 135.508 11.2563 137.818 12.7248C138.405 13.091 138.971 13.4842 139.547 13.8665L139.649 13.7965C139.278 12.9672 138.944 12.1324 138.545 11.3085Z" fill="#92278F"/>
</g>
<defs>
<linearGradient id="paint0_linear_42_1834" x1="10.13" y1="17.0391" x2="10.13" y2="37.3044" gradientUnits="userSpaceOnUse">
<stop stop-color="white"/>
<stop offset="1" stop-color="white"/>
</linearGradient>
<linearGradient id="paint1_linear_42_1834" x1="33.2916" y1="17.0391" x2="33.2916" y2="37.3044" gradientUnits="userSpaceOnUse">
<stop stop-color="white"/>
<stop offset="1" stop-color="white"/>
</linearGradient>
<linearGradient id="paint2_linear_42_1834" x1="54.7213" y1="17.0391" x2="54.7213" y2="37.3044" gradientUnits="userSpaceOnUse">
<stop stop-color="white"/>
<stop offset="1" stop-color="white"/>
</linearGradient>
<linearGradient id="paint3_linear_42_1834" x1="76.1456" y1="17.0391" x2="76.1456" y2="37.3044" gradientUnits="userSpaceOnUse">
<stop stop-color="white"/>
<stop offset="1" stop-color="white"/>
</linearGradient>
<linearGradient id="paint4_linear_42_1834" x1="159.612" y1="17.2598" x2="159.612" y2="37.5251" gradientUnits="userSpaceOnUse">
<stop stop-color="white"/>
<stop offset="1" stop-color="white"/>
</linearGradient>
<linearGradient id="paint5_linear_42_1834" x1="183.934" y1="17.2598" x2="183.934" y2="37.5251" gradientUnits="userSpaceOnUse">
<stop stop-color="white"/>
<stop offset="1" stop-color="white"/>
</linearGradient>
<linearGradient id="paint6_linear_42_1834" x1="208.546" y1="17.2598" x2="208.546" y2="37.5251" gradientUnits="userSpaceOnUse">
<stop stop-color="white"/>
<stop offset="1" stop-color="white"/>
</linearGradient>
<linearGradient id="paint7_linear_42_1834" x1="231.706" y1="17.2598" x2="231.706" y2="37.5251" gradientUnits="userSpaceOnUse">
<stop stop-color="white"/>
<stop offset="1" stop-color="white"/>
</linearGradient>
<linearGradient id="paint8_linear_42_1834" x1="254.864" y1="17.2598" x2="254.864" y2="37.5251" gradientUnits="userSpaceOnUse">
<stop stop-color="white"/>
<stop offset="1" stop-color="white"/>
</linearGradient>
<clipPath id="clip0_42_1834">
<rect width="265" height="50.8168" fill="white"/>
</clipPath>
</defs>
</svg>
