<svg width="265" height="51" viewBox="0 0 265 51" fill="none" xmlns="http://www.w3.org/2000/svg">
<path d="M14.476 17.0322H5.78932C4.25825 17.0463 2.79386 17.6607 1.71118 18.7434C0.628502 19.8261 0.0140474 21.2905 0 22.8215L0 37.2975H2.89735V31.5082H17.368V37.2975H20.2653V22.8215C20.231 21.2969 19.6101 19.8442 18.5317 18.7658C17.4534 17.6874 16.0006 17.0665 14.476 17.0322ZM17.3733 28.6109H2.89735V22.8215C2.89735 22.0536 3.20169 21.3169 3.74373 20.7728C4.28577 20.2287 5.02133 19.9217 5.78932 19.9188H14.476C15.244 19.9202 15.9801 20.2259 16.5232 20.769C17.0662 21.312 17.3719 22.0482 17.3733 22.8162V28.6109Z" fill="url(#paint0_linear_42_1973)"/>
<path d="M43.4269 22.8215C43.4033 21.2935 42.7858 19.8346 41.7052 18.754C40.6245 17.6734 39.1657 17.0558 37.6376 17.0322H23.1562V37.2975H37.6376C39.167 37.278 40.6282 36.6618 41.7097 35.5803C42.7912 34.4988 43.4074 33.0376 43.4269 31.5082C43.4404 30.6849 43.2716 29.8689 42.9327 29.1184C42.5938 28.368 42.0932 27.7018 41.4667 27.1676C42.0939 26.6327 42.595 25.9657 42.9339 25.2143C43.2728 24.4629 43.4412 23.6457 43.4269 22.8215ZM37.6376 34.4002H26.0536V28.6109H37.6322C38.3783 28.6431 39.0832 28.9621 39.5998 29.5014C40.1163 30.0408 40.4047 30.7587 40.4047 31.5055C40.4047 32.2523 40.1163 32.9703 39.5998 33.5096C39.0832 34.049 38.3783 34.368 37.6322 34.4002H37.6376ZM37.6376 25.7135H26.0536V19.9188H37.6322C38.0229 19.902 38.4129 19.9643 38.7788 20.1022C39.1447 20.2401 39.4788 20.4506 39.7612 20.721C40.0436 20.9915 40.2683 21.3163 40.4218 21.6759C40.5753 22.0355 40.6545 22.4225 40.6545 22.8135C40.6545 23.2045 40.5753 23.5914 40.4218 23.951C40.2683 24.3106 40.0436 24.6354 39.7612 24.9059C39.4788 25.1763 39.1447 25.3868 38.7788 25.5247C38.4129 25.6626 38.0229 25.725 37.6322 25.7081L37.6376 25.7135Z" fill="url(#paint1_linear_42_1973)"/>
<path d="M44.5859 19.9296H53.2726V37.2975H56.1646V19.9296H64.8512V17.0322H44.5859V19.9296Z" fill="url(#paint2_linear_42_1973)"/>
<path d="M80.4863 17.0322H71.805C70.2709 17.0365 68.8008 17.6478 67.716 18.7326C66.6312 19.8174 66.0199 21.2874 66.0157 22.8215V31.5082C66.0128 32.2693 66.1606 33.0234 66.4506 33.7271C66.7405 34.4307 67.1668 35.0701 67.705 35.6082C68.2431 36.1464 68.8825 36.5727 69.5861 36.8626C70.2898 37.1526 71.0439 37.3004 71.805 37.2975H80.4917C82.0248 37.2918 83.4935 36.6799 84.5771 35.5953C85.6608 34.5106 86.2713 33.0414 86.2756 31.5082V22.8215C86.2413 21.2969 85.6204 19.8442 84.542 18.7658C83.4636 17.6874 82.0109 17.0665 80.4863 17.0322ZM83.3836 31.5082C83.3822 32.2762 83.0765 33.0123 82.5334 33.5554C81.9904 34.0984 81.2543 34.4041 80.4863 34.4056H71.805C71.037 34.4041 70.3009 34.0984 69.7578 33.5554C69.2148 33.0123 68.9091 32.2762 68.9076 31.5082V22.8215C68.9076 22.0526 69.2127 21.3151 69.7559 20.7709C70.2991 20.2267 71.0361 19.9202 71.805 19.9188H80.4917C81.2596 19.9202 81.9958 20.2259 82.5388 20.769C83.0819 21.312 83.3876 22.0482 83.389 22.8162L83.3836 31.5082Z" fill="url(#paint3_linear_42_1973)"/>
<path d="M163.958 17.2529H155.271C153.74 17.267 152.276 17.8814 151.193 18.9641C150.11 20.0468 149.496 21.5112 149.482 23.0422H152.379C152.381 22.2743 152.686 21.5381 153.229 20.9951C153.773 20.452 154.509 20.1463 155.277 20.1449H163.963C164.731 20.1463 165.467 20.452 166.01 20.9951C166.554 21.5381 166.859 22.2743 166.861 23.0422V25.9396H158.163V28.837H166.85V31.7343C166.848 32.5023 166.543 33.2384 166 33.7815C165.457 34.3245 164.721 34.6302 163.953 34.6317H155.271C154.503 34.6302 153.767 34.3245 153.224 33.7815C152.681 33.2384 152.375 32.5023 152.374 31.7343H149.477C149.486 33.2667 150.1 34.7335 151.183 35.817C152.267 36.9006 153.734 37.5137 155.266 37.5236H163.953C165.485 37.511 166.952 36.8964 168.036 35.8124C169.12 34.7284 169.735 33.2619 169.747 31.7289V23.0422C169.724 21.5142 169.106 20.0553 168.025 18.9747C166.945 17.8941 165.486 17.2765 163.958 17.2529Z" fill="url(#paint4_linear_42_1973)"/>
<path d="M183.934 29.7902L175.247 17.2529H172.355V37.5182H175.247V22.4337L183.934 34.9709L192.621 22.4337V37.5182H195.513V17.2529H192.621L183.934 29.7902Z" fill="url(#paint5_linear_42_1973)"/>
<path d="M212.886 17.2529H204.199C202.668 17.267 201.204 17.8814 200.121 18.9641C199.039 20.0468 198.424 21.5112 198.41 23.0422V37.5182H201.307V31.7289H215.783V37.5182H218.681V23.0422C218.647 21.5167 218.025 20.0632 216.945 18.9847C215.866 17.9062 214.412 17.2858 212.886 17.2529ZM215.783 28.8316H201.307V23.0422C201.309 22.2743 201.615 21.5381 202.158 20.9951C202.701 20.452 203.437 20.1463 204.205 20.1449H212.886C213.654 20.1463 214.39 20.452 214.933 20.9951C215.476 21.5381 215.782 22.2743 215.783 23.0422V28.8316Z" fill="url(#paint6_linear_42_1973)"/>
<path d="M221.57 23.0422V37.5182H224.468V23.0422C224.469 22.2743 224.775 21.5381 225.318 20.9951C225.861 20.452 226.597 20.1463 227.365 20.1449H238.944V37.5182H241.841V17.2529H227.36C225.83 17.2725 224.369 17.8887 223.288 18.9702C222.206 20.0517 221.59 21.5129 221.57 23.0422Z" fill="url(#paint7_linear_42_1973)"/>
<path d="M262.102 17.2529L247.626 33.323V17.2529H244.734V37.5182H247.626L262.102 21.1627V37.5182H265V17.2529H262.102Z" fill="url(#paint8_linear_42_1973)"/>
<path d="M142.498 20.3711C142.17 19.5362 141.772 18.7308 141.308 17.9638C140.788 17.0663 140.176 16.2253 139.482 15.4542C137.065 12.9465 133.882 11.315 130.434 10.8174C128.253 10.4579 126.018 10.5959 123.897 11.2213C120.699 12.1717 117.9 14.1449 115.932 16.8382C115.813 16.989 115.711 17.1506 115.598 17.3175C116.98 16.9725 118.428 16.9948 119.798 17.3822C121.005 17.0321 122.195 16.6336 123.417 16.3697C124.95 16.034 126.527 15.9485 128.086 16.1166C129.929 16.2868 131.717 16.8369 133.337 17.7322C135.144 18.779 136.711 20.1936 137.936 21.8844C139.022 23.3181 139.904 24.8947 140.559 26.5697C141.098 27.9106 141.539 29.2624 142.024 30.6141C142.08 30.511 142.13 30.4049 142.175 30.2964C142.765 28.7819 143.128 27.1886 143.252 25.568C143.399 23.8009 143.141 22.0235 142.498 20.3711Z" fill="#2E3192"/>
<path d="M140.8 31.0127C140.503 28.7473 139.725 26.5717 138.517 24.6321C137.31 22.6926 135.701 21.034 133.799 19.768C130.703 17.7122 126.942 16.9077 123.276 17.5169C122.646 17.6246 122.021 17.77 121.348 17.9208C122.596 18.5457 123.669 19.471 124.471 20.6135C125.376 21.0013 126.297 21.3567 127.164 21.7821C129.852 23.0243 132.114 25.0303 133.669 27.5499C134.677 29.2015 135.284 31.0662 135.441 32.9946C135.524 34.4165 135.494 35.8428 135.35 37.2598C135.234 38.6962 134.921 40.1098 134.418 41.4604C133.971 42.6668 133.508 43.8677 133.05 45.074C133.158 45.0425 133.262 45.001 133.363 44.9502C133.799 44.6917 134.235 44.4116 134.655 44.1531C136.784 42.7856 138.5 40.8644 139.62 38.5954C140.753 36.2394 141.163 33.6013 140.8 31.0127Z" fill="#2184C7"/>
<path d="M134.343 35.0679C134.244 34.0551 134.091 33.0484 133.885 32.0521C133.436 30.1565 132.59 28.3778 131.402 26.8336C129.792 24.7357 127.676 23.081 125.252 22.0244C125.727 23.0924 125.973 24.2482 125.974 25.4172C125.974 25.5572 125.974 25.6865 125.974 25.8265C127.191 27.8825 128.069 30.1209 128.575 32.456C128.982 34.4352 128.948 36.4795 128.478 38.4445C127.87 40.7909 126.671 42.942 124.993 44.6916C122.829 47.0163 120.207 48.8682 117.292 50.1309C117.152 50.1901 117.028 50.2871 116.797 50.4217C117.556 50.5402 118.176 50.6694 118.806 50.7287C120.1 50.863 121.407 50.8323 122.694 50.6371C124.446 50.3692 126.126 49.75 127.632 48.8168C129.553 47.6108 131.143 45.9449 132.258 43.97C133.088 42.5437 133.686 40.995 134.03 39.3816C134.372 37.9709 134.478 36.5132 134.343 35.0679Z" fill="#43C8F5"/>
<path d="M127.354 33.5545C127.303 32.6909 127.17 31.8343 126.955 30.9964C126.621 29.8062 126.163 28.6483 125.727 27.3989C125.396 28.7573 124.729 30.0108 123.788 31.0449C123.771 31.121 123.76 31.1985 123.756 31.2764C123.726 31.5817 123.672 31.8842 123.595 32.1812C123.134 34.56 122.229 36.8309 120.929 38.8752C119.719 40.7637 118.035 42.3013 116.044 43.3344C113.776 44.4851 111.264 45.0743 108.72 45.0523C107.792 45.0646 106.864 45.0232 105.941 44.9284C104.864 44.81 103.787 44.5999 102.748 44.3899C102.209 44.2876 101.638 44.1368 101.078 44.0022C101.078 44.056 101.078 44.0775 101.078 44.0883C101.294 44.3522 101.498 44.6269 101.724 44.8692C104.159 47.6535 107.153 49.4468 110.88 49.8723C112.903 50.0913 114.95 49.8425 116.863 49.1452C119.501 48.2065 121.847 46.5919 123.666 44.4628C125.486 42.3337 126.714 39.7645 127.23 37.0119C127.417 35.8693 127.459 34.7075 127.354 33.5545Z" fill="#00A650"/>
<path d="M118.905 33.6891C118.264 34.1307 117.671 34.637 117.047 35.1001C115.068 36.6002 112.782 37.6447 110.353 38.159C108.966 38.4372 107.545 38.4917 106.141 38.3206C104.149 38.0714 102.235 37.3934 100.53 36.3334C98.1113 34.8516 95.9968 32.9235 94.2988 30.6518C93.9056 30.1132 93.5179 29.607 93.1086 29.0361C93.0655 29.1223 93.0224 29.1654 93.0278 29.1977C93.1032 30.3394 93.0978 31.4919 93.2755 32.6228C93.528 34.2249 94.0758 35.7661 94.8911 37.1681C96.0093 39.1392 97.6248 40.7825 99.5765 41.9342C101.351 42.9897 103.323 43.668 105.371 43.9268C107 44.1429 108.651 44.1175 110.272 43.8514C111.695 43.6009 113.077 43.1589 114.381 42.5374C116.968 41.3345 119.134 39.3811 120.596 36.9311C121.235 35.7913 121.788 34.6049 122.249 33.3822C122.396 32.9857 122.513 32.5789 122.599 32.1651C121.509 32.9651 120.242 33.4882 118.905 33.6891Z" fill="#0ECC64"/>
<path d="M113.147 32.5315C111.647 32.5076 110.15 32.3817 108.666 32.1545C106.625 31.8232 104.68 31.0553 102.963 29.9034C101.362 28.8263 100.021 27.4061 99.0372 25.7458C98.0756 24.1314 97.3963 22.3648 97.0285 20.522C96.8041 19.5586 96.6564 18.579 96.5869 17.5923C96.5169 15.8959 96.5869 14.1941 96.5869 12.4385C96.4468 12.5893 96.3014 12.7401 96.1722 12.8962C94.1629 15.1734 92.9114 18.019 92.5909 21.039C92.4515 22.5848 92.5938 24.1431 93.0109 25.6381C93.5106 27.4819 94.3811 29.2044 95.569 30.7004C97.9298 33.796 101.345 35.9174 105.166 36.6621C107.167 37.0656 109.23 37.0491 111.224 36.6136C113.057 36.1831 114.798 35.426 116.362 34.3786C116.615 34.2117 116.863 34.0178 117.138 33.8078C115.72 33.7292 114.347 33.2899 113.147 32.5315Z" fill="#FEF200"/>
<path d="M109.56 27.9001C107.775 26.4429 106.251 24.6928 105.053 22.7247C104.197 21.3285 103.602 19.7883 103.297 18.1794C102.965 16.2788 103.041 14.3295 103.518 12.4601C104.088 10.1851 105.086 8.03941 106.458 6.13763C107.498 4.67818 108.709 3.3426 109.835 1.96932C109.733 1.95619 109.63 1.95619 109.528 1.96932C108.026 2.23638 106.562 2.68862 105.171 3.31567C102.902 4.35519 100.978 6.02436 99.6295 8.12485C98.4737 9.93498 97.7461 11.985 97.5023 14.1188C97.2667 15.8317 97.3489 17.5734 97.7446 19.2565C98.086 20.5468 98.5309 21.8075 99.0748 23.0263C100.045 25.2232 101.58 27.124 103.523 28.5356C105.93 30.3331 108.817 31.3736 111.817 31.5245C110.764 30.5313 109.987 29.2827 109.56 27.9001Z" fill="#FF8500"/>
<path d="M109.184 25.4119C109.185 24.1968 109.451 22.9966 109.965 21.8952C109.868 21.1735 109.771 20.4519 109.685 19.741C109.493 17.9163 109.608 16.0725 110.024 14.2856C110.375 12.6726 111.038 11.1434 111.973 9.78338C113.404 7.73912 115.334 6.09474 117.58 5.00652C118.866 4.33945 120.225 3.82265 121.629 3.4663C122.782 3.18625 123.951 2.98699 125.119 2.77696C125.695 2.67464 126.277 2.63156 126.95 2.54539C126.892 2.48146 126.829 2.42205 126.762 2.36767C125.003 1.27708 123.053 0.531374 121.015 0.170423C118.588 -0.231453 116.095 0.08101 113.842 1.06979C111.123 2.22837 108.816 4.18034 107.223 6.67062C105.823 8.75163 104.947 11.1408 104.671 13.634C104.415 15.6494 104.583 17.696 105.162 19.6432C105.742 21.5905 106.721 23.3955 108.037 24.9433C108.414 25.3957 108.823 25.8211 109.227 26.2466C109.2 25.945 109.184 25.6811 109.184 25.4119Z" fill="#FF081A"/>
<path d="M138.545 11.3021C137.623 9.34908 136.236 7.65189 134.506 6.35909C132.775 5.0663 130.755 4.2173 128.62 3.8864C126.919 3.60063 125.181 3.62069 123.488 3.94564C121.158 4.37978 118.953 5.31913 117.025 6.69759C114.844 8.23077 113.115 10.3212 112.017 12.7508C110.937 15.1801 110.513 17.8506 110.789 20.495C111.633 19.3326 112.76 18.4056 114.063 17.8023C115.754 15.0288 117.785 12.5785 120.709 10.9521C121.944 10.2546 123.288 9.76857 124.683 9.51416C126.539 9.19364 128.438 9.23203 130.279 9.62725C132.955 10.2033 135.508 11.2499 137.818 12.7185C138.405 13.0847 138.971 13.4778 139.547 13.8602L139.649 13.7902C139.278 12.9608 138.944 12.1261 138.545 11.3021Z" fill="#92278F"/>
<defs>
<linearGradient id="paint0_linear_42_1973" x1="10.13" y1="17.0322" x2="10.13" y2="37.2975" gradientUnits="userSpaceOnUse">
<stop stop-color="#181818"/>
<stop offset="1"/>
</linearGradient>
<linearGradient id="paint1_linear_42_1973" x1="33.2916" y1="17.0322" x2="33.2916" y2="37.2975" gradientUnits="userSpaceOnUse">
<stop stop-color="#181818"/>
<stop offset="1"/>
</linearGradient>
<linearGradient id="paint2_linear_42_1973" x1="54.7213" y1="17.0322" x2="54.7213" y2="37.2975" gradientUnits="userSpaceOnUse">
<stop stop-color="#181818"/>
<stop offset="1"/>
</linearGradient>
<linearGradient id="paint3_linear_42_1973" x1="76.1456" y1="17.0322" x2="76.1456" y2="37.2975" gradientUnits="userSpaceOnUse">
<stop stop-color="#181818"/>
<stop offset="1"/>
</linearGradient>
<linearGradient id="paint4_linear_42_1973" x1="159.612" y1="17.2529" x2="159.612" y2="37.5182" gradientUnits="userSpaceOnUse">
<stop stop-color="#181818"/>
<stop offset="1"/>
</linearGradient>
<linearGradient id="paint5_linear_42_1973" x1="183.934" y1="17.2529" x2="183.934" y2="37.5182" gradientUnits="userSpaceOnUse">
<stop stop-color="#181818"/>
<stop offset="1"/>
</linearGradient>
<linearGradient id="paint6_linear_42_1973" x1="208.546" y1="17.2529" x2="208.546" y2="37.5182" gradientUnits="userSpaceOnUse">
<stop stop-color="#181818"/>
<stop offset="1"/>
</linearGradient>
<linearGradient id="paint7_linear_42_1973" x1="231.706" y1="17.2529" x2="231.706" y2="37.5182" gradientUnits="userSpaceOnUse">
<stop stop-color="#181818"/>
<stop offset="1"/>
</linearGradient>
<linearGradient id="paint8_linear_42_1973" x1="254.864" y1="17.2529" x2="254.864" y2="37.5182" gradientUnits="userSpaceOnUse">
<stop stop-color="#181818"/>
<stop offset="1"/>
</linearGradient>
</defs>
</svg>
