<svg width="23" height="15" viewBox="0 0 23 15" fill="none" xmlns="http://www.w3.org/2000/svg">
<path d="M23 7.27323C23 7.71952 22.6383 8.08124 22.192 8.08124H2.73407L7.83109 13.1736C7.98611 13.3286 8.06597 13.5353 8.06597 13.742C8.06597 13.9487 7.98611 14.1554 7.83109 14.3104C7.51634 14.6252 7.00429 14.6252 6.68954 14.3104L0.225491 7.84166C-0.0751629 7.541 -0.0751629 7.00546 0.225491 6.70011L6.69424 0.23606C7.00899 -0.0786867 7.52104 -0.0786867 7.83578 0.23606C8.15053 0.550807 8.15053 1.06286 7.83578 1.3776L2.74346 6.46992H22.1967C22.643 6.46523 23 6.82695 23 7.27323Z" fill="black"/>
</svg>
