<svg width="31" height="34" viewBox="0 0 31 34" fill="none" xmlns="http://www.w3.org/2000/svg">
<path d="M30.689 27.1324L28.3478 13.675C27.9054 11.1898 25.9889 9.32278 23.5876 8.90731V8.19526C23.5876 3.67643 19.9113 0 15.393 0C10.875 0 7.19846 3.67622 7.19846 8.19526V8.9092C4.79114 9.32899 2.87933 11.1936 2.43821 13.6752L0.0980727 27.1326C-0.213831 28.9019 0.219342 30.5488 1.38172 31.9188C2.54358 33.2893 4.08698 34 5.87349 34H24.9153C26.7191 34 28.2625 33.2891 29.4071 31.9188C30.5681 30.5488 31.0019 28.9013 30.6892 27.1326L30.689 27.1324ZM21.1422 8.81908H9.64466V8.19444C9.64466 5.02402 12.2235 2.44546 15.3931 2.44546C18.5635 2.44546 21.1421 5.02486 21.1421 8.19444L21.1422 8.81908Z" fill="#17181C"/>
</svg>
