<svg width="28" height="24" viewBox="0 0 28 24" fill="none" xmlns="http://www.w3.org/2000/svg">
<path d="M19.6129 0.0112202C17.5764 0.0112202 15.6578 0.807854 14.216 2.24965L13.6213 2.84432L13.0154 2.23843C11.5736 0.796634 9.65498 0 7.61851 0C5.58766 0 3.67461 0.791024 2.23282 2.23282C0.791024 3.67461 0 5.58766 0 7.62412C0 9.66059 0.796634 11.5736 2.23843 13.0154L12.9257 23.7027L12.9481 23.7251C13.1332 23.9102 13.3801 24 13.6213 24C13.8682 24 14.115 23.9046 14.3001 23.7195L24.9874 13.0323C26.4292 11.5905 27.2258 9.67742 27.2258 7.64095C27.2258 5.60449 26.4348 3.68583 24.993 2.24965C23.5568 0.802244 21.6438 0.0112202 19.6129 0.0112202ZM23.6297 11.669L13.6269 21.6774L3.60168 11.6522C2.52454 10.575 1.92987 9.14446 1.92426 7.61851C1.92426 6.09818 2.51332 4.6676 3.59046 3.59046C4.6676 2.51893 6.09818 1.92426 7.6129 1.92426C9.13885 1.92426 10.5694 2.51893 11.6522 3.60168L12.9369 4.8864C13.2959 5.24544 13.9355 5.24544 14.3001 4.8864L15.5792 3.60729C16.6564 2.53015 18.0926 1.93548 19.6129 1.93548C21.1332 1.93548 22.5638 2.53015 23.641 3.60729C24.7181 4.68443 25.3128 6.11501 25.3072 7.64095C25.3072 9.16129 24.7125 10.5919 23.6297 11.669Z" fill="#9599AA"/>
</svg>
