<svg width="33" height="30" viewBox="0 0 33 30" fill="none" xmlns="http://www.w3.org/2000/svg">
<path d="M22.797 0C20.3885 0 18.009 0.915293 16.1767 2.50191C14.3442 0.915194 11.9645 0 9.55598 0C4.19757 0 0 4.2366 0 9.64492C0 16.1825 4.50979 20.1784 11.3362 26.227C11.9196 26.744 12.5218 27.2775 13.1415 27.8305C13.1457 27.8344 13.15 27.8382 13.1543 27.8419L15.2153 29.6389C15.4915 29.8797 15.8342 30 16.1769 30C16.5196 30 16.8624 29.8796 17.1386 29.6388L19.1992 27.8418C19.2035 27.8381 19.2078 27.8343 19.2121 27.8305C23.292 24.1887 26.3511 21.4006 28.5641 18.6816C31.149 15.5057 32.3529 12.6343 32.3529 9.64492C32.3528 4.2366 28.1554 0 22.797 0Z" fill="#17181C"/>
</svg>
