<svg width="21" height="21" viewBox="0 0 21 21" fill="none" xmlns="http://www.w3.org/2000/svg">
<path d="M3.41884 0.691406H18.0144C19.4005 0.691406 20.5346 1.71763 20.5346 3.2116V17.8076C20.5346 19.3015 19.4005 20.3278 18.0144 20.3278H3.41884C2.03232 20.3278 0.898438 19.3015 0.898438 17.8076V3.2116C0.898438 1.71763 2.03232 0.691406 3.41884 0.691406ZM15.2027 2.87309C14.7164 2.87309 14.319 3.27068 14.319 3.75718V5.87313C14.319 6.35943 14.7164 6.75722 15.2027 6.75722H17.4221C17.9084 6.75722 18.3061 6.35943 18.3061 5.87313V3.75718C18.3061 3.27068 17.9084 2.87309 17.4221 2.87309H15.2027ZM18.3154 8.99555H16.5872C16.7507 9.52943 16.8392 10.095 16.8392 10.6801C16.8392 13.9462 14.1061 16.5938 10.7353 16.5938C7.36466 16.5938 4.63196 13.9462 4.63196 10.6801C4.63196 10.0946 4.72027 9.52923 4.88398 8.99555H3.08052V17.2902C3.08052 17.7195 3.43174 18.0709 3.86118 18.0709H17.5352C17.9646 18.0709 18.3158 17.7197 18.3158 17.2902V8.99555H18.3154ZM10.7351 6.64572C8.55722 6.64572 6.79146 8.35643 6.79146 10.4669C6.79146 12.5775 8.55722 14.2882 10.7351 14.2882C12.9131 14.2882 14.6791 12.5775 14.6791 10.4669C14.6791 8.35643 12.9133 6.64572 10.7351 6.64572Z" fill="white"/>
</svg>
