<svg width="30" height="18" viewBox="0 0 30 18" fill="none" xmlns="http://www.w3.org/2000/svg">
<path d="M18.6963 1.90039H10.9219V15.8679H18.6963V1.90039Z" fill="#EBEBEB"/>
<path d="M11.4401 8.88425C11.4401 6.04647 12.7742 3.52782 14.8213 1.90048C13.3148 0.715915 11.4143 0 9.34128 0C4.43051 0 0.457031 3.97347 0.457031 8.88425C0.457031 13.795 4.43051 17.7685 9.34128 17.7685C11.4143 17.7685 13.3148 17.0526 14.8213 15.868C12.7713 14.2637 11.4401 11.722 11.4401 8.88425Z" fill="#969696"/>
<path d="M29.1846 8.88425C29.1846 13.795 25.2111 17.7685 20.3004 17.7685C18.2274 17.7685 16.3269 17.0526 14.8203 15.868C16.8933 14.2378 18.2015 11.722 18.2015 8.88425C18.2015 6.04647 16.8674 3.52782 14.8203 1.90048C16.324 0.715915 18.2245 0 20.2975 0C25.2111 0 29.1846 3.99935 29.1846 8.88425Z" fill="white"/>
</svg>
