<svg width="38" height="24" viewBox="0 0 38 24" fill="none" xmlns="http://www.w3.org/2000/svg">
<path d="M1.18179 2.36358H36.6364C37.2888 2.36358 37.8182 1.83409 37.8182 1.18179C37.8182 0.529399 37.2887 0 36.6364 0H1.18179C0.529498 0 0 0.529399 0 1.18179C0 1.83418 0.529498 2.36358 1.18179 2.36358Z" fill="#17181C"/>
<path d="M36.6364 10.3638H1.18179C0.529399 10.3638 0 10.8933 0 11.5456C0 12.1979 0.529498 12.7274 1.18179 12.7274H36.6364C37.2888 12.7274 37.8182 12.1979 37.8182 11.5456C37.8182 10.8933 37.2888 10.3638 36.6364 10.3638Z" fill="#17181C"/>
<path d="M36.6364 20.7275H1.18179C0.529399 20.7275 0 21.257 0 21.9093C0 22.5617 0.529498 23.0911 1.18179 23.0911H36.6364C37.2888 23.0911 37.8182 22.5616 37.8182 21.9093C37.8183 21.2569 37.2888 20.7275 36.6364 20.7275Z" fill="#17181C"/>
</svg>
