<svg width="71" height="18" viewBox="0 0 71 18" fill="none" xmlns="http://www.w3.org/2000/svg">
<path d="M26.2101 3.81934H22.3393C22.0744 3.81934 21.8492 4.01175 21.8079 4.27322L20.2423 14.1981C20.2112 14.3939 20.3629 14.5704 20.5616 14.5704H22.4095C22.6744 14.5704 22.8996 14.378 22.941 14.116L23.3632 11.4391C23.4039 11.1771 23.6298 10.9847 23.8941 10.9847H25.1194C27.6692 10.9847 29.1408 9.75092 29.5251 7.30608C29.6983 6.23645 29.5324 5.39604 29.0315 4.80746C28.4814 4.16116 27.5056 3.81934 26.2101 3.81934ZM26.6567 7.44416C26.445 8.83297 25.3838 8.83297 24.3576 8.83297H23.7735L24.1833 6.23928C24.2076 6.08252 24.3435 5.96707 24.502 5.96707H24.7697C25.4687 5.96707 26.128 5.96707 26.4687 6.36549C26.6719 6.60318 26.7342 6.95633 26.6567 7.44416Z" fill="white"/>
<path d="M37.7788 7.39989H35.9252C35.7673 7.39989 35.6309 7.51535 35.6066 7.67211L35.5245 8.19051L35.3949 8.00262C34.9936 7.42027 34.0988 7.22559 33.2057 7.22559C31.1574 7.22559 29.4079 8.77682 29.0672 10.9528C28.89 12.0383 29.1419 13.0762 29.7577 13.8001C30.3225 14.4656 31.1307 14.7429 32.0924 14.7429C33.7428 14.7429 34.658 13.6818 34.658 13.6818L34.5753 14.1968C34.5442 14.3937 34.6959 14.5703 34.8934 14.5703H36.5631C36.8285 14.5703 37.0527 14.3779 37.0945 14.1159L38.0963 7.77228C38.128 7.57703 37.9769 7.39989 37.7788 7.39989ZM35.1951 11.0072C35.0162 12.066 34.1758 12.7769 33.1038 12.7769C32.5655 12.7769 32.1354 12.6043 31.8592 12.2771C31.5852 11.9523 31.4811 11.4899 31.5683 10.9749C31.7352 9.92511 32.5899 9.19109 33.6454 9.19109C34.1718 9.19109 34.5997 9.36596 34.8815 9.6959C35.164 10.0292 35.276 10.4944 35.1951 11.0072Z" fill="white"/>
<path d="M47.6518 7.39941H45.7891C45.6114 7.39941 45.4444 7.4877 45.3437 7.63541L42.7747 11.4193L41.6857 7.78312C41.6172 7.55561 41.4073 7.39941 41.1696 7.39941H39.3392C39.1167 7.39941 38.9622 7.61673 39.033 7.82613L41.0847 13.8466L39.1558 16.5693C39.0041 16.7838 39.1569 17.0786 39.419 17.0786H41.2794C41.4559 17.0786 41.6212 16.9926 41.7214 16.8477L47.9167 7.90593C48.065 7.692 47.9127 7.39941 47.6518 7.39941Z" fill="white"/>
<path d="M53.8195 3.81934H49.9481C49.6838 3.81934 49.4586 4.01175 49.4172 4.27322L47.8517 14.1981C47.8206 14.3939 47.9723 14.5704 48.1698 14.5704H50.1564C50.3409 14.5704 50.4988 14.4358 50.5277 14.2524L50.972 11.4391C51.0127 11.1771 51.2386 10.9847 51.5029 10.9847H52.7277C55.278 10.9847 56.749 9.75092 57.1339 7.30608C57.3076 6.23645 57.1407 5.39604 56.6398 4.80746C56.0902 4.16116 55.115 3.81934 53.8195 3.81934ZM54.266 7.44416C54.0549 8.83297 52.9937 8.83297 51.967 8.83297H51.3835L51.7938 6.23928C51.8181 6.08252 51.9528 5.96707 52.1119 5.96707H52.3796C53.078 5.96707 53.738 5.96707 54.0787 6.36549C54.2819 6.60318 54.3436 6.95633 54.266 7.44416Z" fill="#BCBCBC"/>
<path d="M65.3897 7.39989H63.5372C63.3782 7.39989 63.2429 7.51535 63.2191 7.67211L63.1371 8.19051L63.0069 8.00262C62.6056 7.42027 61.7113 7.22559 60.8182 7.22559C58.7699 7.22559 57.021 8.77682 56.6803 10.9528C56.5037 12.0383 56.7544 13.0762 57.3702 13.8001C57.9362 14.4656 58.7433 14.7429 59.7049 14.7429C61.3553 14.7429 62.2705 13.6818 62.2705 13.6818L62.1879 14.1968C62.1568 14.3937 62.3085 14.5703 62.5071 14.5703H64.1762C64.4405 14.5703 64.6658 14.3779 64.7071 14.1159L65.7095 7.77228C65.74 7.57703 65.5883 7.39989 65.3897 7.39989ZM62.806 11.0072C62.6282 12.066 61.7866 12.7769 60.7146 12.7769C60.1775 12.7769 59.7462 12.6043 59.47 12.2771C59.1961 11.9523 59.0931 11.4899 59.1791 10.9749C59.3472 9.92511 60.2007 9.19109 61.2563 9.19109C61.7826 9.19109 62.2105 9.36596 62.4924 9.6959C62.776 10.0292 62.888 10.4944 62.806 11.0072Z" fill="#BCBCBC"/>
<path d="M67.5733 4.09114L65.9845 14.1976C65.9534 14.3935 66.1051 14.57 66.3026 14.57H67.8998C68.1653 14.57 68.3905 14.3776 68.4313 14.1156L69.9979 4.19131C70.0291 3.9955 69.8774 3.81836 69.6798 3.81836H67.8913C67.7334 3.81893 67.5976 3.93438 67.5733 4.09114Z" fill="#BCBCBC"/>
<path d="M4.16819 16.4989L4.4642 14.6189L3.80483 14.6036H0.65625L2.84435 0.730773C2.85114 0.688893 2.87321 0.649844 2.90548 0.622113C2.93774 0.594382 2.97905 0.579102 3.02207 0.579102H8.33101C10.0935 0.579102 11.3098 0.945829 11.9448 1.66966C12.2425 2.00922 12.4321 2.36407 12.5238 2.75456C12.62 3.1643 12.6217 3.65384 12.5278 4.2509L12.521 4.29448V4.67705L12.8187 4.8457C13.0694 4.9787 13.2687 5.13093 13.4215 5.30524C13.6762 5.59557 13.8409 5.96456 13.9105 6.40203C13.9824 6.85195 13.9586 7.38733 13.8409 7.99344C13.705 8.69068 13.4854 9.29793 13.1889 9.79482C12.9161 10.2527 12.5685 10.6324 12.1559 10.9267C11.762 11.2063 11.2939 11.4185 10.7647 11.5543C10.252 11.6879 9.6673 11.7552 9.02604 11.7552H8.61287C8.31743 11.7552 8.03047 11.8616 7.80521 12.0523C7.57938 12.247 7.42996 12.513 7.38412 12.8039L7.35299 12.9731L6.83002 16.2867L6.80625 16.4084C6.80002 16.4468 6.78927 16.4661 6.77342 16.4791C6.75927 16.491 6.73889 16.4989 6.71908 16.4989H4.16819Z" fill="white"/>
<path d="M13.1009 4.33887C13.0851 4.44017 13.067 4.54374 13.0466 4.65013C12.3465 8.2444 9.95121 9.48607 6.89206 9.48607H5.33447C4.96035 9.48607 4.6451 9.75772 4.5868 10.1267L3.78933 15.1839L3.5635 16.6174C3.52558 16.8597 3.71235 17.0781 3.95686 17.0781H6.71943C7.04657 17.0781 7.32447 16.8404 7.37597 16.5178L7.40314 16.3775L7.92328 13.0769L7.95668 12.8958C8.00761 12.5721 8.28608 12.3344 8.61322 12.3344H9.02639C11.7029 12.3344 13.7982 11.2478 14.4106 8.10348C14.6664 6.78994 14.534 5.69315 13.8571 4.92178C13.6522 4.68918 13.3981 4.4962 13.1009 4.33887Z" fill="#BCBCBC"/>
<path d="M12.3677 4.04717C12.2607 4.01605 12.1503 3.98775 12.0371 3.96228C11.9234 3.93738 11.8068 3.91531 11.6868 3.89607C11.2668 3.82816 10.8067 3.7959 10.3137 3.7959H6.15258C6.05014 3.7959 5.95279 3.8191 5.86563 3.86098C5.67376 3.95323 5.53113 4.13489 5.49661 4.35731L4.61141 9.96348L4.58594 10.127C4.64423 9.75805 4.95949 9.4864 5.3336 9.4864H6.8912C9.95035 9.4864 12.3456 8.24416 13.0457 4.65046C13.0667 4.54407 13.0842 4.4405 13.1001 4.3392C12.9229 4.24525 12.731 4.16489 12.5244 4.09641C12.4735 4.07943 12.4209 4.06302 12.3677 4.04717Z" fill="#838383"/>
<path d="M5.49606 4.35715C5.53059 4.13474 5.67322 3.95307 5.86509 3.86139C5.95281 3.81951 6.0496 3.79631 6.15204 3.79631H10.3132C10.8061 3.79631 11.2663 3.82857 11.6862 3.89648C11.8062 3.91572 11.9228 3.93779 12.0366 3.96269C12.1498 3.98816 12.2602 4.01646 12.3671 4.04758C12.4203 4.06343 12.473 4.07984 12.5245 4.09625C12.7311 4.16473 12.9229 4.24566 13.1001 4.33904C13.3084 3.01079 13.0984 2.10642 12.3801 1.28751C11.5883 0.385969 10.1592 0 8.33052 0H3.02158C2.64803 0 2.32938 0.27165 2.27165 0.641207L0.060341 14.6566C0.0167602 14.934 0.230703 15.1841 0.510299 15.1841H3.78792L4.61086 9.96332L5.49606 4.35715Z" fill="white"/>
</svg>
