<svg width="25" height="25" viewBox="0 0 25 25" fill="none" xmlns="http://www.w3.org/2000/svg">
<g clip-path="url(#clip0_42_1952)">
<path d="M24.203 22.771L18.253 16.5827C19.7829 14.7641 20.6211 12.4759 20.6211 10.0937C20.6211 4.52814 16.0929 0 10.5273 0C4.96173 0 0.433594 4.52814 0.433594 10.0937C0.433594 15.6593 4.96173 20.1875 10.5273 20.1875C12.6167 20.1875 14.6078 19.5573 16.3102 18.361L22.3054 24.5963C22.556 24.8565 22.893 25 23.2542 25C23.5961 25 23.9204 24.8697 24.1666 24.6327C24.6897 24.1293 24.7064 23.2946 24.203 22.771ZM10.5273 2.63315C14.6412 2.63315 17.9879 5.97988 17.9879 10.0937C17.9879 14.2076 14.6412 17.5543 10.5273 17.5543C6.41348 17.5543 3.06674 14.2076 3.06674 10.0937C3.06674 5.97988 6.41348 2.63315 10.5273 2.63315Z" fill="#D4D6E0"/>
</g>
<defs>
<clipPath id="clip0_42_1952">
<rect width="25" height="25" fill="white"/>
</clipPath>
</defs>
</svg>
