<svg width="24" height="24" viewBox="0 0 24 24" fill="none" xmlns="http://www.w3.org/2000/svg">
<path fill-rule="evenodd" clip-rule="evenodd" d="M17.8695 16.5501L23.7267 22.4071C24.0912 22.7715 24.0912 23.3623 23.7268 23.7267C23.5445 23.9089 23.3056 24 23.0669 24C22.8281 24 22.5893 23.9089 22.4071 23.7267L16.5498 17.8695C14.7991 19.3254 12.5508 20.2024 10.1013 20.2024C4.53141 20.2024 0 15.6712 0 10.1016C0 4.53154 4.53141 0 10.1013 0C15.6711 0 20.2025 4.53154 20.2025 10.1016C20.2025 12.5512 19.3254 14.7993 17.8695 16.5501Z" fill="#004A8C"/>
<path d="M14.6831 9.1679H11.0322V5.51709C11.0322 5.00177 10.6145 4.58398 10.0991 4.58398C9.58361 4.58398 9.16595 5.00177 9.16595 5.51709V9.16803H5.51514C4.99969 9.16803 4.58203 9.58581 4.58203 10.1011C4.58203 10.6165 4.99969 11.0342 5.51514 11.0342H9.16595V14.6853C9.16595 15.2006 9.58361 15.6184 10.0991 15.6184C10.6145 15.6184 11.0322 15.2006 11.0322 14.6853V11.0341H14.6831C15.1985 11.0341 15.6162 10.6163 15.6162 10.101C15.6162 9.58569 15.1985 9.1679 14.6831 9.1679Z" fill="white"/>
</svg>
