<svg width="13" height="17" viewBox="0 0 13 17" fill="none" xmlns="http://www.w3.org/2000/svg">
<path fill-rule="evenodd" clip-rule="evenodd" d="M6.39914 16.1654C2.86497 16.1654 0 14.4002 0 12.2226C0 10.0451 2.86497 8.28002 6.39914 8.28002C9.93359 8.28002 12.7986 10.045 12.7986 12.2226C12.7986 14.4001 9.93359 16.1654 6.39914 16.1654ZM6.39914 7.75981V7.7597C5.48133 7.75759 4.602 7.3911 3.95425 6.7408C3.30651 6.09061 2.94355 5.20972 2.945 4.29191C2.94645 3.3741 3.31227 2.49443 3.96203 1.84612C4.61179 1.19791 5.49234 0.834196 6.41015 0.834962C7.32796 0.835738 8.20797 1.20092 8.85671 1.85012C9.50545 2.49943 9.86974 3.37966 9.86974 4.29756C9.86863 5.21682 9.50236 6.09813 8.85149 6.74733C8.20062 7.39663 7.31851 7.76081 6.39917 7.7597L6.39914 7.75981Z" fill="white"/>
</svg>
