<svg width="24" height="25" viewBox="0 0 24 25" fill="none" xmlns="http://www.w3.org/2000/svg">
<path d="M11.9527 0.727539H11.9468C5.45064 0.727539 0.167969 6.01168 0.167969 12.5094C0.167969 15.0866 0.998587 17.4754 2.41093 19.415L0.942623 23.7919L5.47126 22.3442C7.33426 23.5784 9.5566 24.2912 11.9527 24.2912C18.4489 24.2912 23.7316 19.0056 23.7316 12.5094C23.7316 6.01316 18.4489 0.727539 11.9527 0.727539ZM18.8083 17.3649C18.524 18.1676 17.3959 18.8332 16.4961 19.0276C15.8805 19.1587 15.0764 19.2633 12.3695 18.1411C8.90713 16.7066 6.67742 13.1883 6.50364 12.96C6.33722 12.7317 5.10455 11.097 5.10455 9.40632C5.10455 7.71563 5.96315 6.89237 6.30924 6.53892C6.59348 6.24879 7.06328 6.11625 7.51393 6.11625C7.65973 6.11625 7.7908 6.12361 7.90862 6.1295C8.25471 6.14423 8.4285 6.16485 8.65677 6.71123C8.941 7.39605 9.63319 9.08674 9.71566 9.26052C9.7996 9.4343 9.88355 9.66994 9.76573 9.89821C9.65528 10.1338 9.55808 10.2384 9.3843 10.4387C9.21051 10.639 9.04557 10.7922 8.87179 11.0072C8.71273 11.1942 8.53306 11.3945 8.73335 11.7406C8.93364 12.0793 9.62582 13.2089 10.6449 14.1161C11.9601 15.2869 13.0263 15.661 13.4078 15.82C13.692 15.9379 14.0307 15.9099 14.2384 15.689C14.502 15.4047 14.8275 14.9335 15.1589 14.4696C15.3945 14.1367 15.692 14.0955 16.0042 14.2133C16.3223 14.3238 18.0056 15.1558 18.3517 15.3282C18.6978 15.5019 18.9261 15.5844 19.01 15.7302C19.0925 15.876 19.0925 16.5608 18.8083 17.3649Z" fill="white"/>
</svg>
