<svg width="44" height="15" viewBox="0 0 44 15" fill="none" xmlns="http://www.w3.org/2000/svg">
<path d="M18.6744 14.4088H15.1836L17.367 0.908203H20.8576L18.6744 14.4088Z" fill="white"/>
<path d="M31.327 1.23884C30.6385 0.965671 29.5464 0.664062 28.196 0.664062C24.7487 0.664062 22.3211 2.50235 22.3062 5.13054C22.2776 7.06961 24.0443 8.14662 25.3657 8.79317C26.7162 9.45384 27.1753 9.88506 27.1753 10.474C27.1616 11.3784 26.084 11.7953 25.0789 11.7953C23.6852 11.7953 22.9385 11.5804 21.8036 11.0772L21.344 10.8615L20.8555 13.8921C21.6742 14.2651 23.1826 14.5961 24.7487 14.6106C28.4115 14.6106 30.7961 12.8007 30.8244 9.99998C30.8383 8.46312 29.9054 7.28551 27.8942 6.32323C26.6733 5.7055 25.9255 5.28898 25.9255 4.65694C25.9399 4.08235 26.558 3.49383 27.9362 3.49383C29.071 3.46501 29.9049 3.73779 30.5365 4.01077L30.8523 4.15413L31.327 1.23884Z" fill="white"/>
<path d="M35.9673 9.62602C36.2548 8.85042 37.361 5.84866 37.361 5.84866C37.3465 5.87748 37.6479 5.05875 37.8203 4.55613L38.0642 5.71943C38.0642 5.71943 38.7253 8.95103 38.8688 9.62602C38.3233 9.62602 36.6568 9.62602 35.9673 9.62602ZM40.2763 0.908203H37.5761C36.7435 0.908203 36.1108 1.15216 35.7516 2.02835L30.5664 14.4086H34.2292C34.2292 14.4086 34.8323 12.7423 34.9619 12.3834C35.3637 12.3834 38.9269 12.3834 39.4438 12.3834C39.544 12.8574 39.8603 14.4086 39.8603 14.4086H43.0925L40.2763 0.908203Z" fill="white"/>
<path d="M12.267 0.908203L8.84832 10.1143L8.47474 8.24721C7.8427 6.09281 5.86049 3.7521 3.64844 2.58824L6.77982 14.3945H10.4713L15.9583 0.908203H12.267Z" fill="white"/>
<path d="M5.67386 0.908203H0.057458L0 1.18099C4.38115 2.30133 7.28269 5.00187 8.47481 8.24778L7.25387 2.04305C7.05286 1.1808 6.43514 0.936646 5.67386 0.908203Z" fill="#949494"/>
</svg>
