<svg width="28" height="17" viewBox="0 0 28 17" fill="none" xmlns="http://www.w3.org/2000/svg">
<path d="M23.0923 9.66331C22.6569 9.1135 22.7815 8.86888 23.0923 8.37741C23.0979 8.3718 26.6919 3.40549 27.0622 1.72125L27.0644 1.72013C27.2484 1.10635 27.0644 0.655273 26.1746 0.655273H23.2303C22.4807 0.655273 22.1351 1.04239 21.95 1.47551C21.95 1.47551 20.4509 5.06392 18.3302 7.38998C17.6457 8.06211 17.3293 8.27755 16.9556 8.27755C16.7716 8.27755 16.4855 8.06211 16.4855 7.44833V1.72013C16.4855 0.984042 16.2757 0.655273 15.6551 0.655273H11.0254C10.5553 0.655273 10.2759 0.998629 10.2759 1.31842C10.2759 2.01635 11.3363 2.17681 11.4462 4.14045V8.40098C11.4462 9.33455 11.2768 9.50622 10.9009 9.50622C9.9 9.50622 7.47071 5.90323 6.03108 1.7796C5.74046 0.979554 5.45658 0.656395 4.70142 0.656395H1.75596C0.915527 0.656395 0.746094 1.04351 0.746094 1.47663C0.746094 2.24189 1.74699 6.04686 5.40047 11.0738C7.83538 14.5051 11.2645 16.3644 14.3838 16.3644C16.2588 16.3644 16.4877 15.9514 16.4877 15.2412C16.4877 11.9625 16.3183 11.6528 17.2575 11.6528C17.6928 11.6528 18.4424 11.8682 20.1928 13.5233C22.1935 15.4858 22.5223 16.3644 23.6421 16.3644H26.5864C27.4257 16.3644 27.851 15.9514 27.6064 15.1368C27.0465 13.4234 23.2628 9.89895 23.0923 9.66331V9.66331Z" fill="white"/>
</svg>
